<?xml version="1.0" encoding="UTF-8"?>
<svg id="Layer_2" data-name="Layer 2" xmlns="http://www.w3.org/2000/svg" viewBox="0 0 529.8 450.83">
  <defs>
    <style>
      .cls-1 {
        letter-spacing: -.02em;
      }

      .cls-2 {
        fill: #f5faf2;
      }

      .cls-2, .cls-3 {
        stroke-width: 0px;
      }

      .cls-4 {
        opacity: .15;
      }

      .cls-3 {
        fill: #f0f7e7;
      }

      .cls-5 {
        fill: #d6e0f2;
        font-family: Helvetica, Helvetica;
        font-size: 60px;
      }
    </style>
  </defs>
  <g id="Layer_2-2" data-name="Layer 2">
    <g class="cls-4">
      <path class="cls-3" d="M434.11,107.11C403.35,41.66,335.83.13,265.12,0c-30.94.59-59.35,7.43-85.32,20.27-46.24,22.05-84.02,69.94-96.59,117.41-20.71,79.89,7.31,160.81,75.87,207.78,49.31,35.37,127.93,42.13,183.28,15.02,49.06-20.65,91.31-71.36,104.15-121.54,12.65-42.47,7.08-94.24-12.39-131.83h0ZM442.94,173.3c.45,3.2-.3,7.05,1.47,9.66l-27.01.45c-.65.49-1.4.85-2.24.85l.76-1.12c-.57-21.18-6.1-40.21-14.24-58.23-.31-8.07-8.11-13.51-11.44-20.52-6.03-4.15-7.81-11.46-14.66-15.12-1.29-1.4-1.86-3.75-3.83-4.21l3.18-.66c6.48-6.65,13.53-13.11,18.64-20.06,28,31.5,45.81,67.23,49.37,108.94h0ZM366.6,274.76c-2.35-2.24-2.42-6.65-6.55-6.55-1.4-.19-2.01,1.13-2.01,2.25-.07.64.19,1.4-.26,1.85l-8.53-7.48c4.02-2.08,7.01-7.5,10.11-11.44,7.88-10.99,12.47-23.27,16.44-35.82,1.29,1.04,3,1.14,4.28.28,1.25-1.03,1.52-3.01.68-4.32l-3.14-3.37c.42-5.63,1.93-11.16,1.33-16.9l2.08.66c8.72-.08,17.62.47,26.07-.36l-1.33,1.5c-2.12,33.85-13.94,64.41-37.58,89.36,1.03-3.28-2.08-6.08-1.59-9.66h0ZM344.55,301.78c-4.89-4.49,3.03-8.26,4.51-12.41-.83-4.37-5.72-6.82-9.47-8.05-1.78-1-1.18-3.28-1.33-4.76,1.71-1.72,3.41-3.11,4.24-5.36l.65,1.78,11.52,11.92c0,2.73.49,5.05,3.11,6.29,1.29.55,2.73-.57,3.86-.21h-.64c-5,5.45-11.1,9.56-16.71,14l-1.33,1.76c-.61-1.86,3.18-2.73,1.59-4.96h0ZM292.15,156.44c-1.52.57-3.11,1.59-4.77.83-1.63-1.68-3.67-3.94-6.29-4.23-1.78.48-3.03,2.73-5.15,1.52,3.37-3.67,9.36-4.33,11.9-9.4.72-2.42,1.4-4.96,1.13-7.48-.95-1.14-2.35-2.16-3.6-1.14-1.86,3.11-6.14,3.75-8.14,7.05l-6.75-2.28c-1.14-6.16.43-14.06-1.35-19.4,3.58,1.31,7.52,1.4,11.28,2.25,9.58,2.44,18.29,6.93,26.75,12.18-1.97.66-4.05,3.01-5.64,4.51-.08,1.69,1.78,1.21,2.54,2.24l1.78-.65c-2.88,7.31-12.65,6.18-13.68,13.98h0ZM299.99,234.09c-.15,3.37-4.96,3.27-7.2,5.61-1.29-.47-.3-1.78,0-2.52,2.24-1.78,3.94-3.58,7.2-3.09h0ZM353.07,144.24c3.11.66,4.96,4.32,8.1,4.98,2.77,4.3,3.83,9.26,5.19,14.15-2.5,2.82-2.69,9.09-8.15,8.05-1.29-2.99,2.46-4.76,1.59-7.58.98-.76,2.46-1.12,2.77-2.54-.23-2.82-3.79-2.25-4.36-5.15-1.1-1.59-2.99-1.42-4.47-1.97-3.6-1.69-6.93,7.2-7.88.17,1.14-.93,1.78-2.33.95-3.56-3.11-1.69-3.37-5.99-6.78-7.69-4.58.11-8.79-1.95-13.3-.93-2.88-.66-6.29-2.61-8.52.47-.19,2.35-1.44,4.3-1.78,6.58-1.06-.59-1.97-1.61-2.54-2.73,8.26-9.21,17.69-18.49,26.33-27.47l.49-1.14c4.32,5.34,9.36,10.69,12.54,16.69.75,3.56-6.18,7.31-.19,9.66h0ZM369.48,193.93c-1.59,5.08-1.4,10.89-2.69,16.05-.26.85-.26,1.86-.87,2.73-1.59-3.18-2.88-7.43-6.55-9.3-3.11-1.67-1.13-5.89-4.02-7.88l-2.92-2.9c4.96,2.16,11.44,1.61,17.05,1.31h0ZM330.38,114.32c-4.93,5.63-11.33,10.69-15.54,16.6l-.68-1.97c-12.28-10.02-26.52-15-42.11-17.14l-2.42.44.19-25.39-.95-2.08c10.36,1.61,20.71,3.01,30.21,6.38,12.16,4.32,23.41,10.89,33.76,19.49l2.27.94-4.73,2.73h0ZM304.69,253.2c8.26.75,16.02,2.52,23.45,5.32,1.86,0,3.94-.17,5.15-1.57-.45-3.11,3.3-4.49,2.92-7.6,1.59-2.61.45-6.29,2.69-8.54.3-3.28-.15-6.94-2.24-9.45-2.05-1.33-3.9.36-5.91.64-2.23,1.69-1.4,6.67-5.31,5.63-.95,1.31-2.77,1.31-4.05.95-.3-.5-.95-.57-.76-1.12,2.8-1.44,7.81-.47,8.15-4.98,2.08-1.8,5.26-1.02,7.24-3.18,1.4-2.28,2.05-4.23,4.02-6.31.19-.93.57-1.86.49-2.88.57,1.29.57,3.11,2.23,3.83,2.16.66,3.11-1.12,4.06-2.54-.11-.74.45-1.86,1.29-1.12,2.35,1.88,5.64.26,8.37.49,2.31-.76,4.85-1.23,7.39-1.33-2.23,10.32-7.5,19.96-13.71,28.98-2.31,2.88-4.4,5.98-7.01,8.81-.8-2.16-.76-5.08-2.62-7.05l-1.14.29c-1.52,2.99-4.51,5.53-4.13,9-2.23,3.58-7.88.57-11.25,2.45-4.02,1.23-6.18-2.71-9.4-3.56-3.53-1.5-7.65-1.59-11.02-3.37-.12-.84.38-1.52,1.1-1.78h0ZM287.15,11.46c37.55,5.15,71.19,20.06,99.53,47.08l-3.22,1.29c-5.16,5.55-11.14,10.06-14.17,16.44-.34-1.78-2.99-3.01-3.83-4.7-.56-5.15-5.49-10.04-9.93-12.67-3.67-.67-4.51-6.18-9.01-4.49-3.75-3.18-8.45-.83-12.09.93v.47c-17.81-10.13-37.7-16.41-59.18-18-1.06,0-1.59.83-2.71.65,1.12-.74.54-3.01.46-4.28-.59-.97-1.69-2.08-3-1.34-.47.66-.87,1.42-.87,2.25.59-8.34.87-18.47-.26-25.88,5.7,1.78,12.29,1.21,18.28,2.25h0ZM279.95,49.07c16.44,1.97,30.96,6.46,45.5,13.03,2.13,3.27,6.37,4.87,6.9,9-2.12,5.7,7.62,5.63,3.22,11.46-.3,1.86,1.29,2.88,1.93,4.3.57,1.59-.26,4.02,1.63,4.96,3.37.74,4.77-3.75,8.14-2.54,4.4,3.18,5.34,8.43,5.34,13.32.57,3.09,3.18,5.17,5.91,6.29,5.53-1.68,2.88,4.51,6.74,6.1,4.32.53,6.48,6.08,11.25,5.63,4.24,3.18,6.55,7.86,10.35,11.44-.12.83.34,1.59,1.1,1.88,2.27.55,3.67-1.04,5.6-1.12,7.24,14.79,10.8,31.2,12.2,48.55l.87,1.78c-9.09-.09-18.18.1-27.51.66-.27-5.36.12-10.96-2.88-15.29,1.52-2.82,1.78-6.48,1.59-9.66-.56-1.4-1.82-.17-2.42,0-3,2.92-3.41,6.93-4.96,10.35-2.57,3.64-2.95,9.15-1.44,13.3l1.13,1.14-10.49-.23c2.5-1.59-2.16-4.66.38-7.22l4.77-.93c1.48-3.47,5.23-6.01,5.15-10.12,2.04-2.52,3.94-5.79,2.46-9.21-2.27-5.15,3.83-10.4-.87-15.29.45-1.38-.56-3.45-2.27-3.37-1.48-.45-3.18,0-3.18-2.05.87-1.3,3.03-2.63,2.54-4.68-1.13-1.42-2.92-.19-4.32-.29-.38-2.27,3.86-4.7.19-6.76-2.54-.46-3.94,2.73-6.48,1.61-1.1-.95-1.93-2.54-.91-3.86l-5.64-6.94c-.57-.66-2.16.36-2.24-.93.38-5.53-6.36-8.64-6.74-14.15-2.08-1.89-.42-5.36-3.11-6.95-1.52-1.14-3.18-2.42-5.23-1.59-2.35-3.39-5.08-6.67-8.3-9.66-.91-.28-1.59.28-2.01.85.42,2.62,3.53,4.11,3.34,7.01-.45-.09-.84,0-1.1.38.38,2.73,2.54,4.89,4.28,6.76-14.7-11.35-32.05-17.26-50.43-20.25-3.56-.1-7.24-1.59-10.82-.38.87-8.14.31-17.45.5-26.18l-.95-1.78c3.49,1.87,7.26,1.04,11.27,1.61h0ZM264.19,157.08l1.57.85c-1.95.1-4.19-1.14-5.87.27-1.16.85-.4,2.35,0,3.37,3.35,1.33,4.13,6.86,8.6,4.7,1.89.4,4.22.76,4.87,2.94,2.73,1,3.11,5.79,6.78,4.77-.19,1.76-.76,4.87,1.4,6.25-.57,1.59-2.62,2.28-2.54,4.34-.45.55-.94,1.49-.34,2.26,3.45.36,3.26,4.3,4.85,6.44-.76,2.75.19,5.53,2.54,7.05-.38,3.2-1.78,5.91-3.18,8.73-3.64,1.78-9.66-2.73-10.99,3.83-2.06,2.27-.3,7.23-4.34,7.4-7.65.59-14.8-1.1-20.7-5.63,3.84-1.95,10.42.76,11.7-4.96,1.02-.83,1.42-2.35.95-3.56,1.78-1.78,2.44-4.13,3.37-6.27-1.38-1.42-.76-2.18-.44-3.85-3.88-3.94-9.09-1.88-13.98-1.78-2.94,1.67-.13,4.87-2.08,6.91-3.75.48-3.84,4.13-6.48,6.29-1.5-.66-2.61-2.71-2.52-4.2h.49c-.21.74.26,1.4.93,1.59,3.54.55,2.43-3.49,3.54-5.27.59-2.24,5.82-5.32,1.61-6.94-.21-.93.55-2.16-.66-2.73-1.31.57-3.48.57-3.66,2.54.66,1.7,0,3.39-1.5,4.51h-.76c.29-1.12-.57-1.88-1.33-2.28-2.12.11-3.92,1.69-6.08,1.16-3.01.65-6.38,1.21-9.47,1.31-.36-1.78,2.44-1.23,3.01-2.9-.49-2.82,1.38-4.51,2.61-6.57.76-.74,2.16-.48,3.03-.19.72.74,1.48,1.4,2.59,1.13l.95-1.61c2.82,1.7,1.23,9.76,6.72,6.27.87-3.45.12-7.58,1.61-10.76-1.23-3.03,1.99-4.23,2.92-6.31,2.9.3,2.61-2.98,3.85-4.49,4.39-1.3,9.09-2.35,11.9-7.03-1.14-2.35-.38-5.72-2.24-7.6,1.95-.64,5.23-1.67,6.74,0h0ZM259.89,331.04l-2.63-1.8c-34.9-1.87-64.73-16.14-90.78-38.91,4.21-.45,5.8,5.15,10.4,3.75,5.06-.57,9-4.59,14.36-3.75,2.61.09,5.91,0,7.5-2.54.83-2.8-2.18-4.22-2.71-6.48,17.71,13.24,37.68,21.58,60.47,22.73l2.23-.96v24.76l1.16,3.2h0ZM161.59,195.82l-1.42-2.25c2.84,2.05,5.74,1.42,9.04.83-4.6,1.5-2.92,7.14-4.68,10.61-.32,1.68,2.24,2.16,1.95,3.84-2.27,1.12-2.56,3.56-3.56,5.32,1.29-6.27-1.14-12.18-1.33-18.36h0ZM133.19,228.18c-2.54.27-1.88,3.08-2.94,4.47.23-6.55-2.69-12.92-3.56-19.59l-2.05-17.24-1.14-1.59c8.26,1.21,17.35.43,26.07.66l2.06-.97c-.76,4.13-.91,10.13,2.07,13.79-1.02-1.12-2.52-4.42-4.96-4.32-4.79.29-5.15,6.58-9.95,6.77-3.94,3.28-4.49,7.88-5.34,12.39,1.69,1.76-1.31,3.54-.27,5.63h0ZM152.33,184.76l-2.44-.95-25.71.46c2.35-28.68,10.25-55.03,26.82-77.82l10.14-12.84.19-1.78c6.01,7.05,12.65,13.58,19.78,19.78-18.49,19.89-27.85,43.72-29.91,70.43.4.93.09,2.05,1.14,2.73h0ZM258.73,75.41c-4.85-1.04-9.83.63-14.79,1.12-20.93,4.3-40.33,13.22-56.28,28.51l-.65-1.78c-6.27-5.82-11.99-13.13-18.93-17.56,5.99-3.54,11.33-8.77,17.14-12.83,21.75-14.65,46.11-22.88,73.31-24.49-.93,8.83-.17,18.13.19,27.03h0ZM216.73,216.91c.08.95,1.21,1.8,2.25,1.14,1.02-1.42-2.25-3.87.17-4.7,1.52,1.68.76,4.51,1.61,6.46.76,1.06,1.02,2.25.85,3.68-2.56,3.09-6.1,5.82-7.88,9.17-1.69-4.2-5.46-7.57-7.14-11.87-2.69-4.91-4.11-10.42-6.74-15.29,2.24,2.8,8.26-.38,8.26,4.96.36.28.95.17,1.38.17.76-.83.85-.93,1.82-.45.46.93,2.69,1.4.93,2.54.65,1.95,2.33,3.83,4.49,4.21h0ZM244.58,290.05l4.49,2.06c-16.29-4.02-33.82-9.66-47.91-21.38-2.42-1.38-4.01-4.59-6.95-4.77,6.59-5.32,13.17-12.39,18.68-19.14,2.44,4.49,7.69,6.93,11.72,9.95,7.08,3.28,14.47,9.28,22.77,7.58-2.58.97-4.94,2.39-7.01,4.62-1.16,2.52-.76,6.27-4.15,7.39.21,5.36,4.98,9.85,8.35,13.7h0ZM184.78,256.95l-.95-5.82c-5.34-4.8-3.67-13.06-4.51-19.14-3.75-2.99-.76-7.86-3.35-11.23.06-5.46-8.49-7.33-5.83-13.34-1.04-1.5-2.33-3.47-1.12-5.34,1.67-1.97,5.32.21,6.46-2.71l.74-4.99c1.99-1.13,4.77,1.42,5.82-1.33,1.89-4.67-6.91-10.4.66-12.84,2.54-.27,6.02-.83,7.03,2.28.59,3.56,1.52,7.38.17,11.06,2.47.93.21,3.11.21,4.68-1.48.64-2.9,2.16-4.66,1.61-.76-1.23-2.08-3.39-3.88-3.18-1.4,1.95.59,4.01.28,6.25-.45,1.33-.1,2.82-.93,3.84-.64-.45-1.33-.74-2.25-.64-1.61.83-.55,2.54-.17,3.56,1.67,1.04,2.9,2.63,4.87,2.73l.95-1.14c-.21-2.99,1.19-5.34,1.29-8.35l2.73,1.42c2.52,11.63,7.78,22.22,14.45,32.17l3.56,3.54c-8.54,7.43-16.88,16.24-24.1,24.59v.19c-.1-.38-.4-1.88-1.5-1.33-.76-3.56,5.13-2.54,4.03-6.55h0ZM197.79,146.02c-2.63,1.5-4.7,4.13-6.27,6.58-2.27,1.4-5.15,1.3-7.07,3.85,0,1.02,1.25,2.33-.15,3.08-2.16,2.04-6.67-.57-7.69,3.37-.4,3.47-4.51,5.43-4.23,9.28-2.25,1.49-1.87,4.41-1.59,6.74,1.21,1.51-.55,4.22,1.59,5.34-3.65-.46-8.47-1.02-11.72.49,1.78-4.23,1.23-9.49,2.25-13.98,3.47-19.4,12.29-36.46,25.21-51.96,6.48,6.36,13.41,13.79,20.73,19.32-5.32.21-5.44,8.07-11.07,7.88h0ZM255.66,247.1c-1.35,2.16-.31,5.36-.95,7.88-12.48-2.16-23.74-7.32-33.76-15.55,5.63-6.12,13.32-12.09,17.33-18.66.59,2.99,4.13,4.39,6.57,5.79,5,2.24,11.06,5.7,16.75,3.3-.47.36-.83.89-1.29,1.19,1.61,1.59-1.21,3.3.68,4.79.38,1.23-1.23,1.02-1.33,1.99.95,1.68-.29,4.66,2.42,5.23.68.93,0,2.35-1.1,2.44-1.89-.36-4.41-.45-5.34,1.59h0ZM225.45,218.97c1.69-1.69,3.28-3.73,3.84-6.1l3.2,1.61c-2.92.17-4.51,3.09-6.76,4.7l-.29-.21h0ZM251.63,142.65c-.57-1.33,1.04-2.73-.47-3.58-4.32,1.99-2.71,6.76-5.64,9.87-.48,2.44-3.66,1.21-5.14,2.52-1.16-1.76-3.39-1.69-4.98-.66-2.23,0-2.61-4.58-4.98-2.23-.63.76-.27,2.42-2.05,1.76-.38-.62-1.04-.74-1.5-1.1-.1-1.42,2.35-1.25,1.5-2.92-1.69-3.01-5.36-2.54-7.6-4.79h-2.07c11.08-11.71,24.95-16.86,40.03-18.83-.19,6.74-.72,14.34,1.42,20.42-2.35-2.9-5.63.76-8.52-.46h0ZM259.03,112.24c-4.89-1.1-9.49,1.16-14.17,1.61-10.51,2.65-19.66,8.45-28.59,14.83-.47.74-.95,1.38-1.42,2.05-6.48-5.72-12.83-13.68-19.99-18.66,18.13-14.91,38.74-24.85,62.57-26.54l1.59-.93c-1.02,9.09-1.02,18.83,0,27.64h0ZM157.48,45.88c29.72-21.37,63.2-34.23,100.89-35.73l-.76,2.61.26,22.5.85,2.26c-36.58,1.69-68.42,15.38-95.82,40.33l-.47,1.29c-6.29-6.74-13.32-14.53-20.7-19.95h-.87c5.83-3.39,10.89-9.4,16.61-13.32h0ZM87.71,167.43c4.79-38.74,21.27-72.69,48-102.43l.64,2.54c6.4,6.29,12.77,12.94,18.87,18.66-5.25,3.56-8.35,9.57-12.54,14.34-16.82,23.81-26.37,50.45-28.17,80.36l.68,3.68c-9.4-.76-19.63-.76-28.98,0,1.12-5.72.45-11.56,1.5-17.14h0ZM109.38,277.02c-13.51-25.05-21.48-52.33-23-82.35l26.07.23,2.54-.97c-.38,1.42-.19,3.2-.28,5.27l-.19-.3c-.74.59.57.85.47,1.42.48,9.93,2.26,19.32,4.51,28.53l1.33,2.03c-1.99-1.76-2.73-3.92-4.24-5.8-2.14.36-4.49.83-6.08,2.27,1.02,2.69-1.69,1.84-2.92,2.59-.38-.64-1.12-1.4-1.86-1.76-1.99.09-4.05.27-4.89,2.23.28,1.4-1.33,2.07-1.88,3.19-.59,4.24-1.97,9.74,1.12,13.22.09,3.11,1.59,5.91,3.85,7.86.95.21,1.42-.53,2.06-.83,2.52,1.87,3.85,6.48,7.6,5.63,1.12-.55.76-1.69,1.12-2.52,1.99,1.97,2.92,6,6.57,5.61.91.95,1.4,2.62,2.9,2.75,3.94-1.06,2.52,4.49,5.46,6.08,2.24,1.4,3.47,4.79,6.72,3.18l1.14-1.4c1.06.74.21,2.63,1.13,3.66,1.59,3.01,4.77,5.15,7.86,5.98,2.73,3.13,5.55,6.78,8.73,9.02l-2.27.96-18.64,19.29c-8.52-11.54-18.28-22.72-24.93-35.06h0ZM241.47,365.9c-37.68-5.13-70.68-21.44-99.95-46.77l19.32-19.41.28-1.14c26.73,25.82,59.09,38.74,95.65,41.26l2.9-.74-.95,1.42v25.39l1.42,2.27c-5.83-1.78-12.67-1.25-18.68-2.27h0ZM264.19,259.68c-2.08.26-3.77.07-5.46-.66-.85-.1-.55-1.03-.85-1.59,2.75.09,4.06-3.18,6.97-2.71,1.69-1.52,1.97-4.06,4.28-4.91-.74-2.43,2.28-.86,2.92-2.24.85-.76,1.99-1.59,3.2-.93,1.89,2.71,5.72,1.59,7.62,4.66.95.4,1.21-.65,1.1-1.29v-1.16c3.03-.26,4.51,4.04,7.69,1.16.76-.66.61-2.08,0-2.73-.34-.19-.84-.38-.91-.85,2.16-1.02,3.45,3.28,6.06,1.8,2.16-1.8,3.67-4.05,6.59-4.05l.65.87c.45,5.6-4.32,9-8.53,11.52-2.73,1.14-7.69.76-7.5,5.15-3.11,2.82-6.02-1.69-9.85-.45-1.78-.95-.11-3.56-2.54-4.04-3.94,1.68-8.64-2.06-11.45,2.44h0ZM271.12,307.21c3.41,1.4,9.21-1.4,11.07,2.42-1.03,2.18-2.73,4.25-2.05,6.76,1.4,3.49,3.45,8.07,7.88,8.35,1.1,1.48,2.61,1.86,4.13,2.43-7.54,1.23-15.61.85-22.52,3.18.93-7.58,0-15.46,0-23.15l-1.42-2.06c1.33.19,1.97,1.33,2.92,2.06h0ZM271.41,367.22l-1.78,1.12c.66-9.57.66-19.9,0-29.42,4.72,1.59,9.68-.23,14.64-.23l14.36-2.52c7.09,1.42,12.16,12.94,20.04,5.93,2.73-3.28,7.5-3.01,9.21-7.54,4.58-1.66,5.72-6.34,8.98-9.34,3.11-8.83,13.03-10.14,19.13-16.21,4.43-3.96,10.23-7.23,12.88-12.41l.42,2.25,19.81,18.85c-33.49,30.38-72.48,47.55-117.69,49.52h0ZM443.59,195.35c-1.78,43.88-18.11,81.76-46.79,114.5l-.76,1.38c-5.91-6.46-13.79-14.89-20.91-20.51,4.32-2.92,7.62-7.98,11.06-12.1,17.81-24.46,28.23-52.04,29.75-83.26l-.95-2.54,1.59,1.12,26.75-.17,1.36-.69-1.1,2.28h0Z"/>
      <path class="cls-3" d="M348.11,48.12c-.08,1.04.11,1.95.68,2.71,3.94,1.42,4.4,7.14,9.43,5.85,1.52-1.72-.91-3.5-.45-5.64-.65-1.97-2.35-2.82-4.21-3.39-1.97,1.89-3.67-1.69-5.45.48h0Z"/>
      <path class="cls-3" d="M273.21,32.19c4.96,6.38,13.6,2.8,19.78,1.59,4.51,1.87,8.83-.36,12.2-3.18v-.69c-3.18-4.47-9.21-5.15-14.62-5.6l-13.52,5.83c-1.1-.49-3.26-1.08-4.03.46-.59.47,0,1.13.2,1.59h0Z"/>
    </g>
    <g>
      <path class="cls-2" d="M443.85,367.06c-16.14,4.32-33.38,5.72-49.07,11.06,26.56-22.77,25.04-58.03,42.77-84.85,5.65-7.6,10.31-15.55,16.9-22.77-10.79,21.63-6.1,49.69-18.49,70.68-4.77,8.34-11.59,16.42-19.13,22.98,2.46-.09,4.62-2.23,6.78-3.65,20.12-20.08,46.41-25.69,68.16-42,8.72-6.95,16.71-16.04,20.53-25.89-4.13,33.3-37.24,64.52-68.46,74.45h0Z"/>
      <path class="cls-2" d="M516.32,232.22c-9.85,14-21.75,27.03-30.84,41.26,1.02-11.25,2.35-25.12-2.04-35.8-7.62-22.98-14.28-46.32-16.44-71.55l.3-9.64c5.72,25.76,31.03,43.48,29.44,72.38.57,7.01-1.59,12.94-2.92,19.12l.46.45,1.13-1.29c3.75-14.17,5.64-29.08,11.48-42.3,8.3-19.04,18.64-38.25,14.44-61.23,12.61,27.09,8.79,63.29-5,88.6h0Z"/>
      <path class="cls-2" d="M500.79,86.24c16.59,22.49,20.23,58.33,8.14,84.13-4.51,10.93-7.69,22.58-9.47,34.68-.83-2.09-1.02-4.89-1.78-7.22-6.59-25.25-30.5-43.25-40.31-67.06-3.11-7.78-5.76-15.83-7.24-24.28,10.49,19.42,36.37,29.44,43.42,50.82,2.88,5.42,2.73,12.18,4.51,18,.38,0,.76-.28.76-.66-3.11-22.03-2.16-45.1.83-66.87-.19-11.78-1.33-23.22-7.88-32.34,4.2,2.44,6.1,7.14,9.02,10.8h0Z"/>
      <path class="cls-2" d="M489.08,81.85c4.36,19.67-2.01,38.84,2.01,58.7l-.15.17c-10.72-21.05-33.49-30.98-49.14-47.83-9.1-10-13.03-22.18-15.31-35.08,8.98,21.6,33.19,26.36,47.1,44.56,4.66,4.2,6.17,10,9.17,14.77l.49-.47c-7.99-17.04-10.68-36.21-16.25-54.39-2.8-7.87-8.34-15.61-15.76-20.58,18.23,3.72,34.06,22.75,37.85,40.15h0Z"/>
      <path class="cls-2" d="M440.28,36.72c13.75,12.3,19.97,28.22,23.98,44.73l2.28,5.25c-19.97-14.36-38.08-33.64-50.81-54.01l-15.58-15.74c13.68,5.8,28.42,9.26,40.12,19.78h0Z"/>
      <path class="cls-2" d="M125.21,19.56c-13.79,12.09-23.36,27.37-33.59,41.64-9.17,11.34-20.9,18.85-31.3,28.6,5.61-11.63,5.81-25.54,13.77-36.22,11.33-19.76,32.34-26.71,51.11-34.03h0Z"/>
      <path class="cls-2" d="M49.8,61.65c6.7-8.34,15.21-14.14,24.78-16.58-18.58,12.77-17.37,35.63-23.26,54.65-1.87,7.03-5.13,13.51-6.76,20.72l.47.38c3.09-8.16,8.53-15.86,15.31-22.5,13.2-12.18,32.72-19.78,39.17-37.79-.29,25.04-21.18,44.73-41.16,58.8-8.24,7.24-16.2,15.48-20.73,24.76-.45-6.31.93-12.66.48-19.42-2.16-21.86-3.75-46.81,11.71-63.02h0Z"/>
      <path class="cls-2" d="M12.21,136.4c-.57-22.14,8.62-40.24,21.58-56.73.38-.19.64-.57,1.14-.47-14.27,21.67-2.46,48.97-3.12,73.61l-1.88,25.24c.28.17.28.93.95.64.83-2.8,1.02-5.82,1.59-8.71,3.35-20.35,21.03-34.78,36.47-48.86,3.3-3.67,6.21-7.41,7.9-11.73-1.25,10.13-4.43,20.35-8.64,29.72-12.01,23.43-34.21,42.66-38.27,69.49-1.97-25.71-19.47-44.93-17.71-72.19h0Z"/>
      <path class="cls-2" d="M1.41,167.9c1.59-6.93,2.82-14.1,5.84-20.46-5.72,29.29,13.98,50.39,20.44,75.77,2.71,9.49,3.37,19.7,7.24,28.6.36.19.66-.19.89-.47-9.62-26.97,4.26-52.02,18.22-73.14,3.39-5.72,5.34-12.09,7.03-18.66,1.5,12.2-1.59,26.26-3.37,38.93-3.39,16.12-8.45,31.41-12.86,47.06-2.9,9.77-2.14,20.8-.65,31.05l-1.4-1.13c-10.23-18.85-30.48-33.57-36.5-54.18-4.94-16.42-8.24-35.46-4.87-53.36h0Z"/>
      <path class="cls-2" d="M.49,225.1c2.25,31.05,35.63,47.45,51.11,73.14,3.65,5.25,6.84,11.08,11.72,15.48-.76-3.3-3.85-6.08-4.98-9.47-5.42-10.78-7.39-23.62-6.08-36.66,1.5-15.86,8.15-30.57,5.61-47.24,13.6,29.32,9.47,65.91,17.07,97.67,1.99,6.95,6.01,13.14,8.64,19.79-27.92-19.04-66.02-37.13-78.41-72.01C-.06,253.79-.65,238.9.49,225.1H.49Z"/>
      <path class="cls-2" d="M17.18,296.38c15.57,35.23,54.57,38.15,80.74,59.62,4.81,4.24,9.85,7.88,15.29,10.42l.29-.28c-6.01-5.44-12.96-11.62-17.16-18.66-15.31-21.28-9.93-51.09-21.39-73.99,10.42,12.48,19.89,25.42,26.18,39.57,9.36,23.07,12.94,49.16,34.59,66.6-23.43-7.71-50.88-5.55-71.57-19.99-22.58-13.88-42.74-37.41-46.96-63.29h0Z"/>
      <path class="cls-2" d="M57.2,362.11c24.97,28.39,65.77,18.92,99.04,26.35,4.7.64,9,2.52,13.98,1.76-3.96-2.52-9.47-2.24-13.79-4.51-26.09-9.17-29.91-37.39-44.06-56.43,18.09,12.01,33.28,28.21,49.97,43.9,11.99,10.51,26.43,15.36,41.64,18.45-3.66,1.33-8.45.97-12.37,1.99-27.32,6.72-57.68,17.71-86.65,7.88-18.85-5.93-38.28-20.84-47.76-39.39h0Z"/>
      <path class="cls-2" d="M396.15,428.3c-28.15,10.52-57.52-.47-79.49-17.14-8.9-5.65-16.74-13.79-28.26-13.07-4.17-.07-8.19.12-11.74,1.14,21.37,9.95,41.18,23.64,59.33,41.17-3.07,3.49-7.01,6.76-10.76,9.76-17.47-18.83-36.83-36.94-58.5-47.53-4.24.55-8.28,3.09-12.11,5.15-17.64,11.16-35.08,25.5-48.19,43.06l-11.27-9.3c18-18.18,37.89-32.35,59.65-42.47-21.39-6.78-35.35,11.14-51.58,20.25-18.93,13.22-46.13,19.41-68.99,10.3-12.3-4.66-24.21-11.54-33.11-22.69,18,12.39,44.8,13.7,65.26,5.65,27.45-11.92,55.98-27.02,89.09-19.8,5.15.09,10.19,5.25,15.06.85,24.61-6.38,52.46-1.99,73.64,9.26l21.82,8.73c20.31,7.52,46.52,5.44,63.92-6.93-8.94,11.14-21.14,19.11-33.76,23.62h0Z"/>
      <path class="cls-2" d="M426.3,399.22c-31.6,11.94-63.39-2.71-93.65-7.6l-5.84-.74v-.19c14.47-3.27,28.53-7.59,40.05-17.99,16.97-16.31,32.09-33.09,50.92-45.96-13.98,17.92-15.46,43.42-38.54,54.96-5.72,3.73-12.92,4.4-18.83,7.22,8.41.19,16.1-2.82,24.44-3.65,30.95-4.87,66.38.12,88.09-26.26-8.07,18.38-28.27,33.76-46.64,40.22h0Z"/>
      <path class="cls-2" d="M483.7,310.34c-12.46,8.16-25.12,15.74-37.13,25.02v-1.14c18.37-30.54,9.4-72.46,20.72-106.05l4.21-11.25c-2.35,20.93,6.74,38.64,6.1,59.66-.65,12.67-4.77,23.92-11.44,34.04h1.14c8.98-11.8,16.03-24.38,26.52-35.63,16.33-15.74,32.92-31.88,35.08-53.72,5.54,36.47-14.93,68.42-45.2,89.07h0Z"/>
    </g>
    <text class="cls-5" transform="translate(189.4 171.56)"><tspan x="0" y="0">DWI</tspan><tspan class="cls-1" x="116.63" y="0">T</tspan></text>
    <text class="cls-5" transform="translate(197.19 231.24)"><tspan x="0" y="0">MUN</tspan></text>
    <text class="cls-5" transform="translate(198.77 290.92)"><tspan x="0" y="0">2024</tspan></text>
  </g>
</svg>